<svg width="48" height="24" viewBox="0 0 48 24" fill="none" xmlns="http://www.w3.org/2000/svg">
<path d="M6.98596 24C3.89399 24 1.97114 20.6418 3.5363 17.9752L11.1813 4.9504C12.6177 2.50318 15.243 1 18.0806 1H44C46.2091 1 48 2.79086 48 5V20C48 22.2091 46.2091 24 44 24H6.98596Z" fill="#16A086"/>
<path d="M17.7968 16.53C18.1468 16.53 18.4408 16.488 18.6788 16.404C18.9168 16.32 19.1058 16.208 19.2458 16.068C19.3905 15.928 19.4931 15.7647 19.5538 15.578C19.6191 15.3913 19.6518 15.193 19.6518 14.983C19.6518 14.7637 19.6168 14.5677 19.5468 14.395C19.4768 14.2177 19.3671 14.0683 19.2178 13.947C19.0685 13.821 18.8748 13.7253 18.6368 13.66C18.4035 13.5947 18.1211 13.562 17.7898 13.562H15.8928V16.53H17.7968ZM15.8928 9.334V12.26H17.3908C18.0348 12.26 18.5201 12.1433 18.8468 11.91C19.1781 11.6767 19.3438 11.3057 19.3438 10.797C19.3438 10.2697 19.1945 9.894 18.8958 9.67C18.5971 9.446 18.1305 9.334 17.4958 9.334H15.8928ZM17.4958 7.878C18.1585 7.878 18.7255 7.941 19.1968 8.067C19.6681 8.193 20.0531 8.37267 20.3518 8.606C20.6551 8.83933 20.8768 9.12167 21.0168 9.453C21.1568 9.78433 21.2268 10.1577 21.2268 10.573C21.2268 10.811 21.1918 11.0397 21.1218 11.259C21.0518 11.4737 20.9421 11.6767 20.7928 11.868C20.6481 12.0547 20.4615 12.225 20.2328 12.379C20.0088 12.533 19.7405 12.6637 19.4278 12.771C20.8185 13.0837 21.5138 13.835 21.5138 15.025C21.5138 15.4543 21.4321 15.851 21.2688 16.215C21.1055 16.579 20.8675 16.894 20.5548 17.16C20.2421 17.4213 19.8571 17.6267 19.3998 17.776C18.9425 17.9253 18.4198 18 17.8318 18H14.0098V7.878H17.4958ZM34.2007 7.878V18H32.5417V11.462C32.5417 11.2007 32.5557 10.9183 32.5837 10.615L29.5247 16.362C29.38 16.6373 29.1583 16.775 28.8597 16.775H28.5937C28.295 16.775 28.0733 16.6373 27.9287 16.362L24.8347 10.594C24.8487 10.748 24.8603 10.8997 24.8697 11.049C24.879 11.1983 24.8837 11.336 24.8837 11.462V18H23.2247V7.878H24.6457C24.7297 7.878 24.802 7.88033 24.8627 7.885C24.9233 7.88967 24.977 7.90133 25.0237 7.92C25.075 7.93867 25.1193 7.969 25.1567 8.011C25.1987 8.053 25.2383 8.109 25.2757 8.179L28.3067 13.8C28.386 13.9493 28.4583 14.1033 28.5237 14.262C28.5937 14.4207 28.6613 14.584 28.7267 14.752C28.792 14.5793 28.8597 14.4137 28.9297 14.255C28.9997 14.0917 29.0743 13.9353 29.1537 13.786L32.1427 8.179C32.18 8.109 32.2197 8.053 32.2617 8.011C32.3037 7.969 32.348 7.93867 32.3947 7.92C32.446 7.90133 32.502 7.88967 32.5627 7.885C32.6233 7.88033 32.6957 7.878 32.7797 7.878H34.2007ZM39.749 12.967C40.0944 12.967 40.3954 12.925 40.652 12.841C40.9087 12.7523 41.121 12.6287 41.289 12.47C41.4617 12.3067 41.59 12.1107 41.674 11.882C41.758 11.6487 41.8 11.3897 41.8 11.105C41.8 10.8343 41.758 10.5893 41.674 10.37C41.59 10.1507 41.464 9.964 41.296 9.81C41.128 9.656 40.9157 9.53933 40.659 9.46C40.4024 9.376 40.099 9.334 39.749 9.334H38.342V12.967H39.749ZM39.749 7.878C40.4257 7.878 41.0114 7.95733 41.506 8.116C42.0007 8.27467 42.409 8.49633 42.731 8.781C43.053 9.06567 43.291 9.40633 43.445 9.803C43.6037 10.1997 43.683 10.6337 43.683 11.105C43.683 11.595 43.6014 12.0453 43.438 12.456C43.2747 12.862 43.0297 13.212 42.703 13.506C42.3764 13.8 41.9657 14.0287 41.471 14.192C40.981 14.3553 40.407 14.437 39.749 14.437H38.342V18H36.459V7.878H39.749Z" fill="white"/>
</svg>
