<svg width="48" height="24" viewBox="0 0 48 24" fill="none" xmlns="http://www.w3.org/2000/svg">
<path d="M6.98596 24C3.89399 24 1.97114 20.6418 3.5363 17.9752L11.1813 4.9504C12.6177 2.50318 15.243 1 18.0806 1H44C46.2091 1 48 2.79086 48 5V20C48 22.2091 46.2091 24 44 24H6.98596Z" fill="#12826E"/>
<path d="M25.6229 15.613C25.7256 15.613 25.8166 15.6527 25.8959 15.732L26.6379 16.537C26.2273 17.0457 25.7209 17.4353 25.1189 17.706C24.5216 17.9767 23.8029 18.112 22.9629 18.112C22.2116 18.112 21.5349 17.9837 20.9329 17.727C20.3356 17.4703 19.8246 17.1133 19.3999 16.656C18.9753 16.1987 18.6486 15.6527 18.4199 15.018C18.1959 14.3833 18.0839 13.6903 18.0839 12.939C18.0839 12.1783 18.2053 11.483 18.4479 10.853C18.6906 10.2183 19.0313 9.67233 19.4699 9.215C19.9133 8.75767 20.4406 8.403 21.0519 8.151C21.6633 7.89433 22.3399 7.766 23.0819 7.766C23.8193 7.766 24.4726 7.88733 25.0419 8.13C25.6159 8.37267 26.1036 8.69 26.5049 9.082L25.8749 9.957C25.8376 10.013 25.7886 10.062 25.7279 10.104C25.6719 10.146 25.5926 10.167 25.4899 10.167C25.4199 10.167 25.3476 10.1483 25.2729 10.111C25.1983 10.069 25.1166 10.02 25.0279 9.964C24.9393 9.90333 24.8366 9.838 24.7199 9.768C24.6033 9.698 24.4679 9.635 24.3139 9.579C24.1599 9.51833 23.9803 9.46933 23.7749 9.432C23.5743 9.39 23.3409 9.369 23.0749 9.369C22.6223 9.369 22.2069 9.45067 21.8289 9.614C21.4556 9.77267 21.1336 10.006 20.8629 10.314C20.5923 10.6173 20.3823 10.9907 20.2329 11.434C20.0836 11.8727 20.0089 12.3743 20.0089 12.939C20.0089 13.5083 20.0883 14.0147 20.2469 14.458C20.4103 14.9013 20.6296 15.2747 20.9049 15.578C21.1803 15.8813 21.5046 16.1147 21.8779 16.278C22.2513 16.4367 22.6526 16.516 23.0819 16.516C23.3386 16.516 23.5696 16.502 23.7749 16.474C23.9849 16.446 24.1763 16.4017 24.3489 16.341C24.5263 16.2803 24.6919 16.2033 24.8459 16.11C25.0046 16.012 25.1609 15.893 25.3149 15.753C25.3616 15.711 25.4106 15.6783 25.4619 15.655C25.5133 15.627 25.5669 15.613 25.6229 15.613ZM33.3178 9.719C33.2618 9.817 33.2011 9.88933 33.1358 9.936C33.0751 9.978 32.9981 9.999 32.9048 9.999C32.8068 9.999 32.6994 9.964 32.5828 9.894C32.4708 9.81933 32.3354 9.73767 32.1768 9.649C32.0181 9.56033 31.8314 9.481 31.6168 9.411C31.4068 9.33633 31.1571 9.299 30.8678 9.299C30.6064 9.299 30.3778 9.33167 30.1818 9.397C29.9858 9.45767 29.8201 9.544 29.6848 9.656C29.5541 9.768 29.4561 9.90333 29.3908 10.062C29.3254 10.216 29.2928 10.3863 29.2928 10.573C29.2928 10.811 29.3581 11.0093 29.4888 11.168C29.6241 11.3267 29.8014 11.462 30.0208 11.574C30.2401 11.686 30.4898 11.7863 30.7698 11.875C31.0498 11.9637 31.3368 12.0593 31.6308 12.162C31.9248 12.26 32.2118 12.3767 32.4918 12.512C32.7718 12.6427 33.0214 12.8107 33.2408 13.016C33.4601 13.2167 33.6351 13.464 33.7658 13.758C33.9011 14.052 33.9688 14.409 33.9688 14.829C33.9688 15.2863 33.8894 15.7157 33.7308 16.117C33.5768 16.5137 33.3481 16.8613 33.0448 17.16C32.7461 17.454 32.3798 17.6873 31.9458 17.86C31.5118 18.028 31.0148 18.112 30.4548 18.112C30.1328 18.112 29.8154 18.0793 29.5028 18.014C29.1901 17.9533 28.8891 17.8647 28.5998 17.748C28.3151 17.6313 28.0468 17.4913 27.7948 17.328C27.5428 17.1647 27.3188 16.9827 27.1228 16.782L27.6758 15.879C27.7224 15.8137 27.7831 15.76 27.8578 15.718C27.9324 15.6713 28.0118 15.648 28.0958 15.648C28.2124 15.648 28.3384 15.697 28.4738 15.795C28.6091 15.8883 28.7701 15.9933 28.9568 16.11C29.1434 16.2267 29.3604 16.334 29.6078 16.432C29.8598 16.5253 30.1608 16.572 30.5108 16.572C31.0474 16.572 31.4628 16.446 31.7568 16.194C32.0508 15.9373 32.1978 15.571 32.1978 15.095C32.1978 14.829 32.1301 14.612 31.9948 14.444C31.8641 14.276 31.6891 14.136 31.4698 14.024C31.2504 13.9073 31.0008 13.8093 30.7208 13.73C30.4408 13.6507 30.1561 13.5643 29.8668 13.471C29.5774 13.3777 29.2928 13.2657 29.0128 13.135C28.7328 13.0043 28.4831 12.834 28.2638 12.624C28.0444 12.414 27.8671 12.1527 27.7318 11.84C27.6011 11.5227 27.5358 11.133 27.5358 10.671C27.5358 10.3023 27.6081 9.943 27.7528 9.593C27.9021 9.243 28.1168 8.93267 28.3968 8.662C28.6768 8.39133 29.0221 8.17433 29.4328 8.011C29.8434 7.84767 30.3148 7.766 30.8468 7.766C31.4441 7.766 31.9948 7.85933 32.4988 8.046C33.0028 8.23267 33.4321 8.494 33.7868 8.83L33.3178 9.719ZM44.0793 7.878L39.9913 18H38.2903L34.2023 7.878H35.7143C35.8776 7.878 36.0106 7.91767 36.1133 7.997C36.216 8.07633 36.293 8.179 36.3443 8.305L38.7313 14.479C38.8106 14.6797 38.8853 14.9013 38.9553 15.144C39.03 15.382 39.1 15.6317 39.1653 15.893C39.2213 15.6317 39.282 15.382 39.3473 15.144C39.4126 14.9013 39.485 14.6797 39.5643 14.479L41.9373 8.305C41.9746 8.19767 42.047 8.09967 42.1543 8.011C42.2663 7.92233 42.4016 7.878 42.5603 7.878H44.0793Z" fill="white"/>
</svg>
