<svg width="48" height="24" viewBox="0 0 48 24" fill="none" xmlns="http://www.w3.org/2000/svg">
<path d="M6.98596 24C3.89399 24 1.97114 20.6418 3.5363 17.9752L11.1813 4.9504C12.6177 2.50318 15.243 1 18.0806 1H44C46.2091 1 48 2.79086 48 5V20C48 22.2091 46.2091 24 44 24H6.98596Z" fill="#0D4CD3"/>
<path d="M22.9021 12.939C22.9021 13.681 22.7784 14.3623 22.5311 14.983C22.2838 15.6037 21.9361 16.138 21.4881 16.586C21.0401 17.034 20.5011 17.3817 19.8711 17.629C19.2411 17.8763 18.5411 18 17.7711 18H13.9141V7.878H17.7711C18.5411 7.878 19.2411 8.004 19.8711 8.256C20.5011 8.50333 21.0401 8.851 21.4881 9.299C21.9361 9.74233 22.2838 10.2743 22.5311 10.895C22.7784 11.5157 22.9021 12.197 22.9021 12.939ZM20.9701 12.939C20.9701 12.3837 20.8954 11.8867 20.7461 11.448C20.6014 11.0047 20.3891 10.6313 20.1091 10.328C19.8338 10.02 19.4978 9.78433 19.1011 9.621C18.7091 9.45767 18.2658 9.376 17.7711 9.376H15.8041V16.502H17.7711C18.2658 16.502 18.7091 16.4203 19.1011 16.257C19.4978 16.0937 19.8338 15.8603 20.1091 15.557C20.3891 15.249 20.6014 14.8757 20.7461 14.437C20.8954 13.9937 20.9701 13.4943 20.9701 12.939ZM34.2175 12.939C34.2175 13.681 34.0938 14.3693 33.8465 15.004C33.6038 15.634 33.2585 16.18 32.8105 16.642C32.3625 17.104 31.8235 17.4657 31.1935 17.727C30.5635 17.9837 29.8635 18.112 29.0935 18.112C28.3282 18.112 27.6305 17.9837 27.0005 17.727C26.3705 17.4657 25.8292 17.104 25.3765 16.642C24.9285 16.18 24.5808 15.634 24.3335 15.004C24.0862 14.3693 23.9625 13.681 23.9625 12.939C23.9625 12.197 24.0862 11.511 24.3335 10.881C24.5808 10.2463 24.9285 9.698 25.3765 9.236C25.8292 8.774 26.3705 8.41467 27.0005 8.158C27.6305 7.89667 28.3282 7.766 29.0935 7.766C29.6068 7.766 30.0898 7.82667 30.5425 7.948C30.9952 8.06467 31.4105 8.23267 31.7885 8.452C32.1665 8.66667 32.5048 8.93033 32.8035 9.243C33.1068 9.551 33.3635 9.89633 33.5735 10.279C33.7835 10.6617 33.9422 11.077 34.0495 11.525C34.1615 11.973 34.2175 12.4443 34.2175 12.939ZM32.2925 12.939C32.2925 12.3837 32.2178 11.8867 32.0685 11.448C31.9192 11.0047 31.7068 10.629 31.4315 10.321C31.1562 10.013 30.8202 9.77733 30.4235 9.614C30.0315 9.45067 29.5882 9.369 29.0935 9.369C28.5988 9.369 28.1532 9.45067 27.7565 9.614C27.3645 9.77733 27.0285 10.013 26.7485 10.321C26.4732 10.629 26.2608 11.0047 26.1115 11.448C25.9622 11.8867 25.8875 12.3837 25.8875 12.939C25.8875 13.4943 25.9622 13.9937 26.1115 14.437C26.2608 14.8757 26.4732 15.249 26.7485 15.557C27.0285 15.8603 27.3645 16.0937 27.7565 16.257C28.1532 16.4203 28.5988 16.502 29.0935 16.502C29.5882 16.502 30.0315 16.4203 30.4235 16.257C30.8202 16.0937 31.1562 15.8603 31.4315 15.557C31.7068 15.249 31.9192 14.8757 32.0685 14.437C32.2178 13.9937 32.2925 13.4943 32.2925 12.939ZM42.8221 15.613C42.9248 15.613 43.0158 15.6527 43.0951 15.732L43.8371 16.537C43.4265 17.0457 42.9201 17.4353 42.3181 17.706C41.7208 17.9767 41.0021 18.112 40.1621 18.112C39.4108 18.112 38.7341 17.9837 38.1321 17.727C37.5348 17.4703 37.0238 17.1133 36.5991 16.656C36.1745 16.1987 35.8478 15.6527 35.6191 15.018C35.3951 14.3833 35.2831 13.6903 35.2831 12.939C35.2831 12.1783 35.4045 11.483 35.6471 10.853C35.8898 10.2183 36.2305 9.67233 36.6691 9.215C37.1125 8.75767 37.6398 8.403 38.2511 8.151C38.8625 7.89433 39.5391 7.766 40.2811 7.766C41.0185 7.766 41.6718 7.88733 42.2411 8.13C42.8151 8.37267 43.3028 8.69 43.7041 9.082L43.0741 9.957C43.0368 10.013 42.9878 10.062 42.9271 10.104C42.8711 10.146 42.7918 10.167 42.6891 10.167C42.6191 10.167 42.5468 10.1483 42.4721 10.111C42.3975 10.069 42.3158 10.02 42.2271 9.964C42.1385 9.90333 42.0358 9.838 41.9191 9.768C41.8025 9.698 41.6671 9.635 41.5131 9.579C41.3591 9.51833 41.1795 9.46933 40.9741 9.432C40.7735 9.39 40.5401 9.369 40.2741 9.369C39.8215 9.369 39.4061 9.45067 39.0281 9.614C38.6548 9.77267 38.3328 10.006 38.0621 10.314C37.7915 10.6173 37.5815 10.9907 37.4321 11.434C37.2828 11.8727 37.2081 12.3743 37.2081 12.939C37.2081 13.5083 37.2875 14.0147 37.4461 14.458C37.6095 14.9013 37.8288 15.2747 38.1041 15.578C38.3795 15.8813 38.7038 16.1147 39.0771 16.278C39.4505 16.4367 39.8518 16.516 40.2811 16.516C40.5378 16.516 40.7688 16.502 40.9741 16.474C41.1841 16.446 41.3755 16.4017 41.5481 16.341C41.7255 16.2803 41.8911 16.2033 42.0451 16.11C42.2038 16.012 42.3601 15.893 42.5141 15.753C42.5608 15.711 42.6098 15.6783 42.6611 15.655C42.7125 15.627 42.7661 15.613 42.8221 15.613Z" fill="white"/>
</svg>
