<svg width="48" height="24" viewBox="0 0 48 24" fill="none" xmlns="http://www.w3.org/2000/svg">
<path d="M6.98596 24C3.89399 24 1.97114 20.6418 3.5363 17.9752L11.1813 4.9504C12.6177 2.50318 15.243 1 18.0806 1H44C46.2091 1 48 2.79086 48 5V20C48 22.2091 46.2091 24 44 24H6.98596Z" fill="#1D5DEB"/>
<path d="M23.2963 9.376V12.372H27.0903V13.877H23.2963V18H21.4063V7.878H27.7903V9.376H23.2963ZM35.265 16.446V18H29.336V7.878H31.219V16.446H35.265ZM44.0793 7.878L39.9913 18H38.2903L34.2023 7.878H35.7143C35.8776 7.878 36.0106 7.91767 36.1133 7.997C36.216 8.07633 36.293 8.179 36.3443 8.305L38.7313 14.479C38.8106 14.6797 38.8853 14.9013 38.9553 15.144C39.03 15.382 39.1 15.6317 39.1653 15.893C39.2213 15.6317 39.282 15.382 39.3473 15.144C39.4126 14.9013 39.485 14.6797 39.5643 14.479L41.9373 8.305C41.9746 8.19767 42.047 8.09967 42.1543 8.011C42.2663 7.92233 42.4016 7.878 42.5603 7.878H44.0793Z" fill="white"/>
</svg>
