<svg width="48" height="24" viewBox="0 0 48 24" fill="none" xmlns="http://www.w3.org/2000/svg">
<path d="M6.98596 24C3.89399 24 1.97114 20.6418 3.5363 17.9752L11.1813 4.9504C12.6177 2.50318 15.243 1 18.0806 1H44C46.2091 1 48 2.79086 48 5V20C48 22.2091 46.2091 24 44 24H6.98596Z" fill="#315AB5"/>
<path d="M31.2269 12.925V17.02C30.7135 17.398 30.1652 17.6757 29.5819 17.853C29.0032 18.0257 28.3825 18.112 27.7199 18.112C26.8939 18.112 26.1449 17.9837 25.4729 17.727C24.8055 17.4703 24.2339 17.1133 23.7579 16.656C23.2865 16.1987 22.9225 15.6527 22.6659 15.018C22.4092 14.3833 22.2809 13.6903 22.2809 12.939C22.2809 12.1783 22.4045 11.4807 22.6519 10.846C22.8992 10.2113 23.2492 9.66533 23.7019 9.208C24.1592 8.75067 24.7122 8.396 25.3609 8.144C26.0095 7.892 26.7375 7.766 27.5449 7.766C27.9555 7.766 28.3382 7.79867 28.6929 7.864C29.0522 7.92933 29.3835 8.02033 29.6869 8.137C29.9949 8.249 30.2749 8.38667 30.5269 8.55C30.7789 8.71333 31.0099 8.893 31.2199 9.089L30.6809 9.943C30.5969 10.0783 30.4872 10.1623 30.3519 10.195C30.2165 10.223 30.0695 10.188 29.9109 10.09C29.7569 10.0013 29.6029 9.91267 29.4489 9.824C29.2949 9.73533 29.1222 9.65833 28.9309 9.593C28.7442 9.52767 28.5319 9.474 28.2939 9.432C28.0605 9.39 27.7899 9.369 27.4819 9.369C26.9825 9.369 26.5299 9.453 26.1239 9.621C25.7225 9.789 25.3795 10.0293 25.0949 10.342C24.8102 10.6547 24.5909 11.0303 24.4369 11.469C24.2829 11.9077 24.2059 12.3977 24.2059 12.939C24.2059 13.5177 24.2875 14.0357 24.4509 14.493C24.6189 14.9457 24.8522 15.3307 25.1509 15.648C25.4542 15.9607 25.8182 16.201 26.2429 16.369C26.6675 16.5323 27.1412 16.614 27.6639 16.614C28.0372 16.614 28.3709 16.5743 28.6649 16.495C28.9589 16.4157 29.2459 16.3083 29.5259 16.173V14.339H28.2519C28.1305 14.339 28.0349 14.3063 27.9649 14.241C27.8995 14.171 27.8669 14.087 27.8669 13.989V12.925H31.2269ZM34.9311 18H33.0411V7.878H34.9311V18ZM39.0873 9.376V12.372H42.8813V13.877H39.0873V18H37.1973V7.878H43.5813V9.376H39.0873Z" fill="white"/>
</svg>
