<svg width="48" height="24" viewBox="0 0 48 24" fill="none" xmlns="http://www.w3.org/2000/svg">
<path d="M6.98596 24C3.89399 24 1.97114 20.6418 3.5363 17.9752L11.1813 4.9504C12.6177 2.50318 15.243 1 18.0806 1H44C46.2091 1 48 2.79086 48 5V20C48 22.2091 46.2091 24 44 24H6.98596Z" fill="#66727F"/>
<path d="M20.2815 12.12H20.7225C20.8998 12.12 21.0468 12.0967 21.1635 12.05C21.2802 11.9987 21.3805 11.9193 21.4645 11.812L24.2575 8.277C24.3742 8.12767 24.4955 8.025 24.6215 7.969C24.7522 7.90833 24.9155 7.878 25.1115 7.878H26.7355L23.3265 12.085C23.1258 12.3417 22.9182 12.5237 22.7035 12.631C22.8575 12.687 22.9952 12.7663 23.1165 12.869C23.2425 12.967 23.3615 13.0977 23.4735 13.261L26.9875 18H25.3285C25.1045 18 24.9365 17.9697 24.8245 17.909C24.7172 17.8437 24.6262 17.7503 24.5515 17.629L21.6885 13.891C21.5998 13.765 21.4972 13.6763 21.3805 13.625C21.2638 13.5737 21.0958 13.548 20.8765 13.548H20.2815V18H18.3985V7.878H20.2815V12.12ZM29.8861 9.376V12.183H33.4281V13.632H29.8861V16.495H34.3801V18H27.9961V7.878H34.3801V9.376H29.8861ZM40.3959 14.08V18H38.5199V14.08L34.8309 7.878H36.4899C36.6532 7.878 36.7815 7.91767 36.8749 7.997C36.9729 8.07633 37.0545 8.17667 37.1199 8.298L38.9679 11.679C39.0752 11.8797 39.1685 12.0687 39.2479 12.246C39.3319 12.4233 39.4065 12.6007 39.4719 12.778C39.5325 12.6007 39.6025 12.4233 39.6819 12.246C39.7612 12.0687 39.8522 11.8797 39.9549 11.679L41.7959 8.298C41.8472 8.19533 41.9242 8.09967 42.0269 8.011C42.1295 7.92233 42.2602 7.878 42.4189 7.878H44.0849L40.3959 14.08Z" fill="white"/>
</svg>
