<svg width="48" height="24" viewBox="0 0 48 24" fill="none" xmlns="http://www.w3.org/2000/svg">
<path d="M6.98596 24C3.89399 24 1.97114 20.6418 3.5363 17.9752L11.1813 4.9504C12.6177 2.50318 15.243 1 18.0806 1H44C46.2091 1 48 2.79086 48 5V20C48 22.2091 46.2091 24 44 24H6.98596Z" fill="#1D5DEB"/>
<path d="M18.3954 13.8C18.4747 13.9493 18.5471 14.1057 18.6124 14.269C18.6824 14.4277 18.7501 14.5887 18.8154 14.752C18.8807 14.5793 18.9484 14.4137 19.0184 14.255C19.0884 14.0917 19.1631 13.9353 19.2424 13.786L22.2314 8.179C22.2687 8.109 22.3084 8.053 22.3504 8.011C22.3924 7.969 22.4367 7.93867 22.4834 7.92C22.5347 7.90133 22.5907 7.88967 22.6514 7.885C22.7121 7.88033 22.7844 7.878 22.8684 7.878H24.2894V18H22.6304V11.462C22.6304 11.3407 22.6327 11.2077 22.6374 11.063C22.6467 10.9183 22.6584 10.7713 22.6724 10.622L19.6134 16.362C19.4687 16.6373 19.2471 16.775 18.9484 16.775H18.6824C18.3837 16.775 18.1621 16.6373 18.0174 16.362L14.9234 10.601C14.9374 10.755 14.9491 10.9067 14.9584 11.056C14.9677 11.2007 14.9724 11.336 14.9724 11.462V18H13.3134V7.878H14.7344C14.8184 7.878 14.8907 7.88033 14.9514 7.885C15.0121 7.88967 15.0657 7.90133 15.1124 7.92C15.1637 7.93867 15.2081 7.969 15.2454 8.011C15.2874 8.053 15.3271 8.109 15.3644 8.179L18.3954 13.8ZM35.6408 12.939C35.6408 13.681 35.5171 14.3693 35.2698 15.004C35.0271 15.634 34.6818 16.18 34.2338 16.642C33.7858 17.104 33.2468 17.4657 32.6168 17.727C31.9868 17.9837 31.2868 18.112 30.5168 18.112C29.7514 18.112 29.0538 17.9837 28.4238 17.727C27.7938 17.4657 27.2524 17.104 26.7998 16.642C26.3518 16.18 26.0041 15.634 25.7568 15.004C25.5094 14.3693 25.3858 13.681 25.3858 12.939C25.3858 12.197 25.5094 11.511 25.7568 10.881C26.0041 10.2463 26.3518 9.698 26.7998 9.236C27.2524 8.774 27.7938 8.41467 28.4238 8.158C29.0538 7.89667 29.7514 7.766 30.5168 7.766C31.0301 7.766 31.5131 7.82667 31.9658 7.948C32.4184 8.06467 32.8338 8.23267 33.2118 8.452C33.5898 8.66667 33.9281 8.93033 34.2268 9.243C34.5301 9.551 34.7868 9.89633 34.9968 10.279C35.2068 10.6617 35.3654 11.077 35.4728 11.525C35.5848 11.973 35.6408 12.4443 35.6408 12.939ZM33.7158 12.939C33.7158 12.3837 33.6411 11.8867 33.4918 11.448C33.3424 11.0047 33.1301 10.629 32.8548 10.321C32.5794 10.013 32.2434 9.77733 31.8468 9.614C31.4548 9.45067 31.0114 9.369 30.5168 9.369C30.0221 9.369 29.5764 9.45067 29.1798 9.614C28.7878 9.77733 28.4518 10.013 28.1718 10.321C27.8964 10.629 27.6841 11.0047 27.5348 11.448C27.3854 11.8867 27.3108 12.3837 27.3108 12.939C27.3108 13.4943 27.3854 13.9937 27.5348 14.437C27.6841 14.8757 27.8964 15.249 28.1718 15.557C28.4518 15.8603 28.7878 16.0937 29.1798 16.257C29.5764 16.4203 30.0221 16.502 30.5168 16.502C31.0114 16.502 31.4548 16.4203 31.8468 16.257C32.2434 16.0937 32.5794 15.8603 32.8548 15.557C33.1301 15.249 33.3424 14.8757 33.4918 14.437C33.6411 13.9937 33.7158 13.4943 33.7158 12.939ZM35.2023 7.878H36.7143C36.8776 7.878 37.0106 7.91767 37.1133 7.997C37.216 8.07633 37.293 8.179 37.3443 8.305L39.7313 14.479C39.8106 14.6797 39.8853 14.9013 39.9553 15.144C40.03 15.382 40.1 15.6317 40.1653 15.893C40.2166 15.6317 40.275 15.382 40.3403 15.144C40.4103 14.9013 40.485 14.6797 40.5643 14.479L42.9373 8.305C42.9746 8.19767 43.047 8.09967 43.1543 8.011C43.2663 7.92233 43.4016 7.878 43.5603 7.878H45.0793L40.9913 18H39.2903L35.2023 7.878Z" fill="white"/>
</svg>
