<svg width="48" height="24" viewBox="0 0 48 24" fill="none" xmlns="http://www.w3.org/2000/svg">
<path d="M6.98596 24C3.89399 24 1.97114 20.6418 3.5363 17.9752L11.1813 4.9504C12.6177 2.50318 15.243 1 18.0806 1H44C46.2091 1 48 2.79086 48 5V20C48 22.2091 46.2091 24 44 24H6.98596Z" fill="#1D5DEB"/>
<path d="M24.0425 7.878V18H22.3835V11.462C22.3835 11.2007 22.3975 10.9183 22.4255 10.615L19.3665 16.362C19.2218 16.6373 19.0001 16.775 18.7015 16.775H18.4355C18.1368 16.775 17.9151 16.6373 17.7705 16.362L14.6765 10.594C14.6905 10.748 14.7021 10.8997 14.7115 11.049C14.7208 11.1983 14.7255 11.336 14.7255 11.462V18H13.0665V7.878H14.4875C14.5715 7.878 14.6438 7.88033 14.7045 7.885C14.7651 7.88967 14.8188 7.90133 14.8655 7.92C14.9168 7.93867 14.9611 7.969 14.9985 8.011C15.0405 8.053 15.0801 8.109 15.1175 8.179L18.1485 13.8C18.2278 13.9493 18.3001 14.1033 18.3655 14.262C18.4355 14.4207 18.5031 14.584 18.5685 14.752C18.6338 14.5793 18.7015 14.4137 18.7715 14.255C18.8415 14.0917 18.9161 13.9353 18.9955 13.786L21.9845 8.179C22.0218 8.109 22.0615 8.053 22.1035 8.011C22.1455 7.969 22.1898 7.93867 22.2365 7.92C22.2878 7.90133 22.3438 7.88967 22.4045 7.885C22.4651 7.88033 22.5375 7.878 22.6215 7.878H24.0425ZM29.5908 12.967C29.9362 12.967 30.2372 12.925 30.4938 12.841C30.7505 12.7523 30.9628 12.6287 31.1308 12.47C31.3035 12.3067 31.4318 12.1107 31.5158 11.882C31.5998 11.6487 31.6418 11.3897 31.6418 11.105C31.6418 10.8343 31.5998 10.5893 31.5158 10.37C31.4318 10.1507 31.3058 9.964 31.1378 9.81C30.9698 9.656 30.7575 9.53933 30.5008 9.46C30.2442 9.376 29.9408 9.334 29.5908 9.334H28.1838V12.967H29.5908ZM29.5908 7.878C30.2675 7.878 30.8532 7.95733 31.3478 8.116C31.8425 8.27467 32.2508 8.49633 32.5728 8.781C32.8948 9.06567 33.1328 9.40633 33.2868 9.803C33.4455 10.1997 33.5248 10.6337 33.5248 11.105C33.5248 11.595 33.4432 12.0453 33.2798 12.456C33.1165 12.862 32.8715 13.212 32.5448 13.506C32.2182 13.8 31.8075 14.0287 31.3128 14.192C30.8228 14.3553 30.2488 14.437 29.5908 14.437H28.1838V18H26.3008V7.878H29.5908ZM43.3128 12.925V17.02C42.7995 17.398 42.2511 17.6757 41.6678 17.853C41.0891 18.0257 40.4685 18.112 39.8058 18.112C38.9798 18.112 38.2308 17.9837 37.5588 17.727C36.8915 17.4703 36.3198 17.1133 35.8438 16.656C35.3725 16.1987 35.0085 15.6527 34.7518 15.018C34.4951 14.3833 34.3668 13.6903 34.3668 12.939C34.3668 12.1783 34.4905 11.4807 34.7378 10.846C34.9851 10.2113 35.3351 9.66533 35.7878 9.208C36.2451 8.75067 36.7981 8.396 37.4468 8.144C38.0955 7.892 38.8235 7.766 39.6308 7.766C40.0415 7.766 40.4241 7.79867 40.7788 7.864C41.1381 7.92933 41.4695 8.02033 41.7728 8.137C42.0808 8.249 42.3608 8.38667 42.6128 8.55C42.8648 8.71333 43.0958 8.893 43.3058 9.089L42.7668 9.943C42.6828 10.0783 42.5731 10.1623 42.4378 10.195C42.3025 10.223 42.1555 10.188 41.9968 10.09C41.8428 10.0013 41.6888 9.91267 41.5348 9.824C41.3808 9.73533 41.2081 9.65833 41.0168 9.593C40.8301 9.52767 40.6178 9.474 40.3798 9.432C40.1465 9.39 39.8758 9.369 39.5678 9.369C39.0685 9.369 38.6158 9.453 38.2098 9.621C37.8085 9.789 37.4655 10.0293 37.1808 10.342C36.8961 10.6547 36.6768 11.0303 36.5228 11.469C36.3688 11.9077 36.2918 12.3977 36.2918 12.939C36.2918 13.5177 36.3735 14.0357 36.5368 14.493C36.7048 14.9457 36.9381 15.3307 37.2368 15.648C37.5401 15.9607 37.9041 16.201 38.3288 16.369C38.7535 16.5323 39.2271 16.614 39.7498 16.614C40.1231 16.614 40.4568 16.5743 40.7508 16.495C41.0448 16.4157 41.3318 16.3083 41.6118 16.173V14.339H40.3378C40.2165 14.339 40.1208 14.3063 40.0508 14.241C39.9855 14.171 39.9528 14.087 39.9528 13.989V12.925H43.3128Z" fill="white"/>
</svg>
