<svg width="48" height="25" viewBox="0 0 48 25" fill="none" xmlns="http://www.w3.org/2000/svg">
<path d="M6.98596 24C3.89399 24 1.97114 20.6418 3.5363 17.9752L11.1813 4.9504C12.6177 2.50318 15.243 1 18.0806 1H44C46.2091 1 48 2.79086 48 5V20C48 22.2091 46.2091 24 44 24H6.98596Z" fill="#E11432"/>
<path d="M32.0682 17.048C32.0682 16.9033 32.0938 16.7657 32.1452 16.635C32.2012 16.5043 32.2758 16.3923 32.3692 16.299C32.4625 16.2057 32.5745 16.131 32.7052 16.075C32.8358 16.019 32.9758 15.991 33.1252 15.991C33.2745 15.991 33.4122 16.019 33.5382 16.075C33.6688 16.131 33.7808 16.2057 33.8742 16.299C33.9722 16.3923 34.0492 16.5043 34.1052 16.635C34.1612 16.7657 34.1892 16.9033 34.1892 17.048C34.1892 17.1973 34.1612 17.3373 34.1052 17.468C34.0492 17.594 33.9722 17.7037 33.8742 17.797C33.7808 17.8903 33.6688 17.9627 33.5382 18.014C33.4122 18.07 33.2745 18.098 33.1252 18.098C32.9758 18.098 32.8358 18.07 32.7052 18.014C32.5745 17.9627 32.4625 17.8903 32.3692 17.797C32.2758 17.7037 32.2012 17.594 32.1452 17.468C32.0938 17.3373 32.0682 17.1973 32.0682 17.048ZM32.0682 12.057C32.0682 11.9123 32.0938 11.7747 32.1452 11.644C32.2012 11.5133 32.2758 11.4013 32.3692 11.308C32.4625 11.2147 32.5745 11.14 32.7052 11.084C32.8358 11.028 32.9758 11 33.1252 11C33.2745 11 33.4122 11.028 33.5382 11.084C33.6688 11.14 33.7808 11.2147 33.8742 11.308C33.9722 11.4013 34.0492 11.5133 34.1052 11.644C34.1612 11.7747 34.1892 11.9123 34.1892 12.057C34.1892 12.2063 34.1612 12.3463 34.1052 12.477C34.0492 12.603 33.9722 12.7127 33.8742 12.806C33.7808 12.8993 33.6688 12.974 33.5382 13.03C33.4122 13.0813 33.2745 13.107 33.1252 13.107C32.9758 13.107 32.8358 13.0813 32.7052 13.03C32.5745 12.974 32.4625 12.8993 32.3692 12.806C32.2758 12.7127 32.2012 12.603 32.1452 12.477C32.0938 12.3463 32.0682 12.2063 32.0682 12.057ZM35.7335 13.051H39.3595V14.493H35.7335V13.051ZM42.1672 13.611C42.1672 14.5723 42.2839 15.5173 42.5172 16.446C42.7505 17.3747 43.0842 18.2473 43.5182 19.064C43.5649 19.1573 43.5905 19.239 43.5952 19.309C43.6045 19.3837 43.5999 19.4467 43.5812 19.498C43.5625 19.554 43.5322 19.6007 43.4902 19.638C43.4529 19.68 43.4109 19.715 43.3642 19.743L42.5942 20.212C42.2489 19.68 41.9549 19.1457 41.7122 18.609C41.4695 18.0723 41.2712 17.531 41.1172 16.985C40.9632 16.439 40.8489 15.886 40.7742 15.326C40.7042 14.766 40.6692 14.1943 40.6692 13.611C40.6692 13.0277 40.7042 12.456 40.7742 11.896C40.8489 11.3313 40.9632 10.776 41.1172 10.23C41.2712 9.684 41.4695 9.145 41.7122 8.613C41.9549 8.07633 42.2489 7.542 42.5942 7.01L43.3642 7.472C43.4109 7.5 43.4529 7.535 43.4902 7.577C43.5322 7.61433 43.5625 7.661 43.5812 7.717C43.5999 7.76833 43.6045 7.83133 43.5952 7.906C43.5905 7.976 43.5649 8.06 43.5182 8.158C43.0842 8.97 42.7505 9.84267 42.5172 10.776C42.2839 11.7047 42.1672 12.6497 42.1672 13.611Z" fill="white"/>
</svg>
