<svg width="48" height="24" viewBox="0 0 48 24" fill="none" xmlns="http://www.w3.org/2000/svg">
<path d="M6.98596 24C3.89399 24 1.97114 20.6418 3.5363 17.9752L11.1813 4.9504C12.6177 2.50318 15.243 1 18.0806 1H44C46.2091 1 48 2.79086 48 5V20C48 22.2091 46.2091 24 44 24H6.98596Z" fill="#851F82"/>
<path d="M22.6865 12.967C23.0319 12.967 23.3329 12.925 23.5895 12.841C23.8462 12.7523 24.0585 12.6287 24.2265 12.47C24.3992 12.3067 24.5275 12.1107 24.6115 11.882C24.6955 11.6487 24.7375 11.3897 24.7375 11.105C24.7375 10.8343 24.6955 10.5893 24.6115 10.37C24.5275 10.1507 24.4015 9.964 24.2335 9.81C24.0655 9.656 23.8532 9.53933 23.5965 9.46C23.3399 9.376 23.0365 9.334 22.6865 9.334H21.2795V12.967H22.6865ZM22.6865 7.878C23.3632 7.878 23.9489 7.95733 24.4435 8.116C24.9382 8.27467 25.3465 8.49633 25.6685 8.781C25.9905 9.06567 26.2285 9.40633 26.3825 9.803C26.5412 10.1997 26.6205 10.6337 26.6205 11.105C26.6205 11.595 26.5389 12.0453 26.3755 12.456C26.2122 12.862 25.9672 13.212 25.6405 13.506C25.3139 13.8 24.9032 14.0287 24.4085 14.192C23.9185 14.3553 23.3445 14.437 22.6865 14.437H21.2795V18H19.3965V7.878H22.6865ZM31.3545 12.967C31.6998 12.967 32.0008 12.925 32.2575 12.841C32.5142 12.7523 32.7265 12.6287 32.8945 12.47C33.0672 12.3067 33.1955 12.1107 33.2795 11.882C33.3635 11.6487 33.4055 11.3897 33.4055 11.105C33.4055 10.8343 33.3635 10.5893 33.2795 10.37C33.1955 10.1507 33.0695 9.964 32.9015 9.81C32.7335 9.656 32.5212 9.53933 32.2645 9.46C32.0078 9.376 31.7045 9.334 31.3545 9.334H29.9475V12.967H31.3545ZM31.3545 7.878C32.0312 7.878 32.6168 7.95733 33.1115 8.116C33.6062 8.27467 34.0145 8.49633 34.3365 8.781C34.6585 9.06567 34.8965 9.40633 35.0505 9.803C35.2092 10.1997 35.2885 10.6337 35.2885 11.105C35.2885 11.595 35.2068 12.0453 35.0435 12.456C34.8802 12.862 34.6352 13.212 34.3085 13.506C33.9818 13.8 33.5712 14.0287 33.0765 14.192C32.5865 14.3553 32.0125 14.437 31.3545 14.437H29.9475V18H28.0645V7.878H31.3545ZM43.8025 9.425H40.7505V18H38.8675V9.425H35.8155V7.878H43.8025V9.425Z" fill="white"/>
</svg>
