<svg width="48" height="24" viewBox="0 0 48 24" fill="none" xmlns="http://www.w3.org/2000/svg">
<path d="M6.98596 24C3.89399 24 1.97114 20.6418 3.5363 17.9752L11.1813 4.9504C12.6177 2.50318 15.243 1 18.0806 1H44C46.2091 1 48 2.79086 48 5V20C48 22.2091 46.2091 24 44 24H6.98596Z" fill="#16A086"/>
<path d="M18.8037 12.967C19.1491 12.967 19.4501 12.925 19.7067 12.841C19.9634 12.7523 20.1757 12.6287 20.3437 12.47C20.5164 12.3067 20.6447 12.1107 20.7287 11.882C20.8127 11.6487 20.8547 11.3897 20.8547 11.105C20.8547 10.8343 20.8127 10.5893 20.7287 10.37C20.6447 10.1507 20.5187 9.964 20.3507 9.81C20.1827 9.656 19.9704 9.53933 19.7137 9.46C19.4571 9.376 19.1537 9.334 18.8037 9.334H17.3967V12.967H18.8037ZM18.8037 7.878C19.4804 7.878 20.0661 7.95733 20.5607 8.116C21.0554 8.27467 21.4637 8.49633 21.7857 8.781C22.1077 9.06567 22.3457 9.40633 22.4997 9.803C22.6584 10.1997 22.7377 10.6337 22.7377 11.105C22.7377 11.595 22.6561 12.0453 22.4927 12.456C22.3294 12.862 22.0844 13.212 21.7577 13.506C21.4311 13.8 21.0204 14.0287 20.5257 14.192C20.0357 14.3553 19.4617 14.437 18.8037 14.437H17.3967V18H15.5137V7.878H18.8037ZM32.7147 7.878V18H31.7487C31.5994 18 31.4734 17.9767 31.3707 17.93C31.2727 17.8787 31.177 17.7947 31.0837 17.678L25.7987 10.93C25.8267 11.238 25.8407 11.5227 25.8407 11.784V18H24.1817V7.878H25.1687C25.248 7.878 25.3157 7.88267 25.3717 7.892C25.4324 7.89667 25.4837 7.91067 25.5257 7.934C25.5724 7.95267 25.6167 7.983 25.6587 8.025C25.7007 8.06233 25.7474 8.11367 25.7987 8.179L31.1047 14.955C31.0907 14.7917 31.079 14.6307 31.0697 14.472C31.0604 14.3133 31.0557 14.1663 31.0557 14.031V7.878H32.7147ZM43.3128 12.925V17.02C42.7995 17.398 42.2511 17.6757 41.6678 17.853C41.0891 18.0257 40.4685 18.112 39.8058 18.112C38.9798 18.112 38.2308 17.9837 37.5588 17.727C36.8915 17.4703 36.3198 17.1133 35.8438 16.656C35.3725 16.1987 35.0085 15.6527 34.7518 15.018C34.4951 14.3833 34.3668 13.6903 34.3668 12.939C34.3668 12.1783 34.4905 11.4807 34.7378 10.846C34.9851 10.2113 35.3351 9.66533 35.7878 9.208C36.2451 8.75067 36.7981 8.396 37.4468 8.144C38.0955 7.892 38.8235 7.766 39.6308 7.766C40.0415 7.766 40.4241 7.79867 40.7788 7.864C41.1381 7.92933 41.4695 8.02033 41.7728 8.137C42.0808 8.249 42.3608 8.38667 42.6128 8.55C42.8648 8.71333 43.0958 8.893 43.3058 9.089L42.7668 9.943C42.6828 10.0783 42.5731 10.1623 42.4378 10.195C42.3025 10.223 42.1555 10.188 41.9968 10.09C41.8428 10.0013 41.6888 9.91267 41.5348 9.824C41.3808 9.73533 41.2081 9.65833 41.0168 9.593C40.8301 9.52767 40.6178 9.474 40.3798 9.432C40.1465 9.39 39.8758 9.369 39.5678 9.369C39.0685 9.369 38.6158 9.453 38.2098 9.621C37.8085 9.789 37.4655 10.0293 37.1808 10.342C36.8961 10.6547 36.6768 11.0303 36.5228 11.469C36.3688 11.9077 36.2918 12.3977 36.2918 12.939C36.2918 13.5177 36.3735 14.0357 36.5368 14.493C36.7048 14.9457 36.9381 15.3307 37.2368 15.648C37.5401 15.9607 37.9041 16.201 38.3288 16.369C38.7535 16.5323 39.2271 16.614 39.7498 16.614C40.1231 16.614 40.4568 16.5743 40.7508 16.495C41.0448 16.4157 41.3318 16.3083 41.6118 16.173V14.339H40.3378C40.2165 14.339 40.1208 14.3063 40.0508 14.241C39.9855 14.171 39.9528 14.087 39.9528 13.989V12.925H43.3128Z" fill="white"/>
</svg>
