<svg width="48" height="24" viewBox="0 0 48 24" fill="none" xmlns="http://www.w3.org/2000/svg">
<path d="M6.98596 24C3.89399 24 1.97114 20.6418 3.5363 17.9752L11.1813 4.9504C12.6177 2.50318 15.243 1 18.0806 1H44C46.2091 1 48 2.79086 48 5V20C48 22.2091 46.2091 24 44 24H6.98596Z" fill="#F8B200"/>
<path d="M20.4731 12.694C20.8278 12.694 21.1358 12.6497 21.3971 12.561C21.6631 12.4723 21.8801 12.351 22.0481 12.197C22.2208 12.0383 22.3491 11.8517 22.4331 11.637C22.5171 11.4223 22.5591 11.1867 22.5591 10.93C22.5591 10.4167 22.3888 10.0223 22.0481 9.747C21.7121 9.47167 21.1964 9.334 20.5011 9.334H19.2971V12.694H20.4731ZM25.3171 18H23.6161C23.2941 18 23.0608 17.874 22.9161 17.622L20.7881 14.381C20.7088 14.2597 20.6201 14.1733 20.5221 14.122C20.4288 14.0707 20.2888 14.045 20.1021 14.045H19.2971V18H17.4141V7.878H20.5011C21.1871 7.878 21.7751 7.95033 22.2651 8.095C22.7598 8.235 23.1634 8.43333 23.4761 8.69C23.7934 8.94667 24.0268 9.25467 24.1761 9.614C24.3254 9.96867 24.4001 10.3607 24.4001 10.79C24.4001 11.1307 24.3488 11.4527 24.2461 11.756C24.1481 12.0593 24.0034 12.3347 23.8121 12.582C23.6254 12.8293 23.3921 13.0463 23.1121 13.233C22.8368 13.4197 22.5218 13.5667 22.1671 13.674C22.2884 13.744 22.4004 13.828 22.5031 13.926C22.6058 14.0193 22.6991 14.1313 22.7831 14.262L25.3171 18ZM31.7582 14.178L30.5262 10.811C30.4655 10.6617 30.4025 10.4843 30.3372 10.279C30.2719 10.0737 30.2065 9.852 30.1412 9.614C30.0805 9.852 30.0175 10.076 29.9522 10.286C29.8869 10.4913 29.8239 10.671 29.7632 10.825L28.5382 14.178H31.7582ZM35.0832 18H33.6272C33.4639 18 33.3309 17.9603 33.2282 17.881C33.1255 17.797 33.0485 17.6943 32.9972 17.573L32.2412 15.508H28.0482L27.2922 17.573C27.2549 17.6803 27.1825 17.7783 27.0752 17.867C26.9679 17.9557 26.8349 18 26.6762 18H25.2062L29.1892 7.878H31.1072L35.0832 18ZM39.1899 12.694C39.5446 12.694 39.8526 12.6497 40.1139 12.561C40.3799 12.4723 40.5969 12.351 40.7649 12.197C40.9376 12.0383 41.0659 11.8517 41.1499 11.637C41.2339 11.4223 41.2759 11.1867 41.2759 10.93C41.2759 10.4167 41.1056 10.0223 40.7649 9.747C40.4289 9.47167 39.9132 9.334 39.2179 9.334H38.0139V12.694H39.1899ZM44.0339 18H42.3329C42.0109 18 41.7776 17.874 41.6329 17.622L39.5049 14.381C39.4256 14.2597 39.3369 14.1733 39.2389 14.122C39.1456 14.0707 39.0056 14.045 38.8189 14.045H38.0139V18H36.1309V7.878H39.2179C39.9039 7.878 40.4919 7.95033 40.9819 8.095C41.4766 8.235 41.8802 8.43333 42.1929 8.69C42.5102 8.94667 42.7436 9.25467 42.8929 9.614C43.0422 9.96867 43.1169 10.3607 43.1169 10.79C43.1169 11.1307 43.0656 11.4527 42.9629 11.756C42.8649 12.0593 42.7202 12.3347 42.5289 12.582C42.3422 12.8293 42.1089 13.0463 41.8289 13.233C41.5536 13.4197 41.2386 13.5667 40.8839 13.674C41.0052 13.744 41.1172 13.828 41.2199 13.926C41.3226 14.0193 41.4159 14.1313 41.4999 14.262L44.0339 18Z" fill="white"/>
</svg>
