<svg width="48" height="24" viewBox="0 0 48 24" fill="none" xmlns="http://www.w3.org/2000/svg">
<path d="M6.98596 24C3.89399 24 1.97114 20.6418 3.5363 17.9752L11.1813 4.9504C12.6177 2.50318 15.243 1 18.0806 1H44C46.2091 1 48 2.79086 48 5V20C48 22.2091 46.2091 24 44 24H6.98596Z" fill="#0D4CD3"/>
<path d="M23.1255 12.694C23.4801 12.694 23.7881 12.6497 24.0495 12.561C24.3155 12.4723 24.5325 12.351 24.7005 12.197C24.8731 12.0383 25.0015 11.8517 25.0855 11.637C25.1695 11.4223 25.2115 11.1867 25.2115 10.93C25.2115 10.4167 25.0411 10.0223 24.7005 9.747C24.3645 9.47167 23.8488 9.334 23.1535 9.334H21.9495V12.694H23.1255ZM27.9695 18H26.2685C25.9465 18 25.7131 17.874 25.5685 17.622L23.4405 14.381C23.3611 14.2597 23.2725 14.1733 23.1745 14.122C23.0811 14.0707 22.9411 14.045 22.7545 14.045H21.9495V18H20.0665V7.878H23.1535C23.8395 7.878 24.4275 7.95033 24.9175 8.095C25.4121 8.235 25.8158 8.43333 26.1285 8.69C26.4458 8.94667 26.6791 9.25467 26.8285 9.614C26.9778 9.96867 27.0525 10.3607 27.0525 10.79C27.0525 11.1307 27.0011 11.4527 26.8985 11.756C26.8005 12.0593 26.6558 12.3347 26.4645 12.582C26.2778 12.8293 26.0445 13.0463 25.7645 13.233C25.4891 13.4197 25.1741 13.5667 24.8195 13.674C24.9408 13.744 25.0528 13.828 25.1555 13.926C25.2581 14.0193 25.3515 14.1313 25.4355 14.262L27.9695 18ZM35.8728 9.425H32.8208V18H30.9378V9.425H27.8858V7.878H35.8728V9.425ZM39.0873 9.376V12.372H42.8813V13.877H39.0873V18H37.1973V7.878H43.5813V9.376H39.0873Z" fill="white"/>
</svg>
