<svg width="48" height="24" viewBox="0 0 48 24" fill="none" xmlns="http://www.w3.org/2000/svg">
<path d="M6.98596 24C3.89399 24 1.97114 20.6418 3.5363 17.9752L11.1813 4.9504C12.6177 2.50318 15.243 1 18.0806 1H44C46.2091 1 48 2.79086 48 5V20C48 22.2091 46.2091 24 44 24H6.98596Z" fill="#315AB5"/>
<path d="M31.7165 9.425H28.6645V18H26.7815V9.425H23.7295V7.878H31.7165V9.425ZM34.9311 18H33.0411V7.878H34.9311V18ZM39.0873 9.376V12.372H42.8813V13.877H39.0873V18H37.1973V7.878H43.5813V9.376H39.0873Z" fill="white"/>
</svg>
