<svg width="48" height="24" viewBox="0 0 48 24" fill="none" xmlns="http://www.w3.org/2000/svg">
<path d="M6.98596 24C3.89399 24 1.97114 20.6418 3.5363 17.9752L11.1813 4.9504C12.6177 2.50318 15.243 1 18.0806 1H44C46.2091 1 48 2.79086 48 5V20C48 22.2091 46.2091 24 44 24H6.98596Z" fill="#66727F"/>
<path d="M26.0154 9.425H22.9634V18H21.0804V9.425H18.0284V7.878H26.0154V9.425ZM35.5649 18H33.6889C33.5582 18 33.4532 17.9673 33.3739 17.902C33.2992 17.8367 33.2386 17.762 33.1919 17.678L30.8469 13.793C30.8096 13.9097 30.7652 14.01 30.7139 14.094L28.4669 17.678C28.4109 17.7573 28.3456 17.832 28.2709 17.902C28.2009 17.9673 28.1076 18 27.9909 18H26.2339L29.5939 12.792L26.3669 7.878H28.2429C28.3736 7.878 28.4669 7.89667 28.5229 7.934C28.5836 7.96667 28.6396 8.02267 28.6909 8.102L30.9939 11.812C31.0406 11.6953 31.0966 11.5787 31.1619 11.462L33.2759 8.137C33.3272 8.04833 33.3832 7.983 33.4439 7.941C33.5046 7.899 33.5816 7.878 33.6749 7.878H35.4739L32.2189 12.715L35.5649 18ZM43.8025 9.425H40.7505V18H38.8675V9.425H35.8155V7.878H43.8025V9.425Z" fill="white"/>
</svg>
