<svg width="48" height="24" viewBox="0 0 48 24" fill="none" xmlns="http://www.w3.org/2000/svg">
<path d="M6.98596 24C3.89399 24 1.97114 20.6418 3.5363 17.9752L11.1813 4.9504C12.6177 2.50318 15.243 1 18.0806 1H44C46.2091 1 48 2.79086 48 5V20C48 22.2091 46.2091 24 44 24H6.98596Z" fill="#12826E"/>
<path d="M29.0024 18H27.1264C26.9957 18 26.8907 17.9673 26.8114 17.902C26.7367 17.8367 26.6761 17.762 26.6294 17.678L24.2844 13.793C24.2471 13.9097 24.2027 14.01 24.1514 14.094L21.9044 17.678C21.8484 17.7573 21.7831 17.832 21.7084 17.902C21.6384 17.9673 21.5451 18 21.4284 18H19.6714L23.0314 12.792L19.8044 7.878H21.6804C21.8111 7.878 21.9044 7.89667 21.9604 7.934C22.0211 7.96667 22.0771 8.02267 22.1284 8.102L24.4314 11.812C24.4781 11.6953 24.5341 11.5787 24.5994 11.462L26.7134 8.137C26.7647 8.04833 26.8207 7.983 26.8814 7.941C26.9421 7.899 27.0191 7.878 27.1124 7.878H28.9114L25.6564 12.715L29.0024 18ZM36.099 16.446V18H30.17V7.878H32.053V16.446H36.099ZM42.8334 9.719C42.7774 9.817 42.7167 9.88933 42.6514 9.936C42.5907 9.978 42.5137 9.999 42.4204 9.999C42.3224 9.999 42.2151 9.964 42.0984 9.894C41.9864 9.81933 41.8511 9.73767 41.6924 9.649C41.5337 9.56033 41.3471 9.481 41.1324 9.411C40.9224 9.33633 40.6727 9.299 40.3834 9.299C40.1221 9.299 39.8934 9.33167 39.6974 9.397C39.5014 9.45767 39.3357 9.544 39.2004 9.656C39.0697 9.768 38.9717 9.90333 38.9064 10.062C38.8411 10.216 38.8084 10.3863 38.8084 10.573C38.8084 10.811 38.8737 11.0093 39.0044 11.168C39.1397 11.3267 39.3171 11.462 39.5364 11.574C39.7557 11.686 40.0054 11.7863 40.2854 11.875C40.5654 11.9637 40.8524 12.0593 41.1464 12.162C41.4404 12.26 41.7274 12.3767 42.0074 12.512C42.2874 12.6427 42.5371 12.8107 42.7564 13.016C42.9757 13.2167 43.1507 13.464 43.2814 13.758C43.4167 14.052 43.4844 14.409 43.4844 14.829C43.4844 15.2863 43.4051 15.7157 43.2464 16.117C43.0924 16.5137 42.8637 16.8613 42.5604 17.16C42.2617 17.454 41.8954 17.6873 41.4614 17.86C41.0274 18.028 40.5304 18.112 39.9704 18.112C39.6484 18.112 39.3311 18.0793 39.0184 18.014C38.7057 17.9533 38.4047 17.8647 38.1154 17.748C37.8307 17.6313 37.5624 17.4913 37.3104 17.328C37.0584 17.1647 36.8344 16.9827 36.6384 16.782L37.1914 15.879C37.2381 15.8137 37.2987 15.76 37.3734 15.718C37.4481 15.6713 37.5274 15.648 37.6114 15.648C37.7281 15.648 37.8541 15.697 37.9894 15.795C38.1247 15.8883 38.2857 15.9933 38.4724 16.11C38.6591 16.2267 38.8761 16.334 39.1234 16.432C39.3754 16.5253 39.6764 16.572 40.0264 16.572C40.5631 16.572 40.9784 16.446 41.2724 16.194C41.5664 15.9373 41.7134 15.571 41.7134 15.095C41.7134 14.829 41.6457 14.612 41.5104 14.444C41.3797 14.276 41.2047 14.136 40.9854 14.024C40.7661 13.9073 40.5164 13.8093 40.2364 13.73C39.9564 13.6507 39.6717 13.5643 39.3824 13.471C39.0931 13.3777 38.8084 13.2657 38.5284 13.135C38.2484 13.0043 37.9987 12.834 37.7794 12.624C37.5601 12.414 37.3827 12.1527 37.2474 11.84C37.1167 11.5227 37.0514 11.133 37.0514 10.671C37.0514 10.3023 37.1237 9.943 37.2684 9.593C37.4177 9.243 37.6324 8.93267 37.9124 8.662C38.1924 8.39133 38.5377 8.17433 38.9484 8.011C39.3591 7.84767 39.8304 7.766 40.3624 7.766C40.9597 7.766 41.5104 7.85933 42.0144 8.046C42.5184 8.23267 42.9477 8.494 43.3024 8.83L42.8334 9.719Z" fill="white"/>
</svg>
