<svg width="48" height="24" viewBox="0 0 48 24" fill="none" xmlns="http://www.w3.org/2000/svg">
<path d="M6.98596 24C3.89399 24 1.97114 20.6418 3.5363 17.9752L11.1813 4.9504C12.6177 2.50318 15.243 1 18.0806 1H44C46.2091 1 48 2.79086 48 5V20C48 22.2091 46.2091 24 44 24H6.98596Z" fill="#66727F"/>
<path d="M23.4516 18H21.5756C21.4449 18 21.3399 17.9673 21.2606 17.902C21.1859 17.8367 21.1253 17.762 21.0786 17.678L18.7336 13.793C18.6963 13.9097 18.6519 14.01 18.6006 14.094L16.3536 17.678C16.2976 17.7573 16.2323 17.832 16.1576 17.902C16.0876 17.9673 15.9943 18 15.8776 18H14.1206L17.4806 12.792L14.2536 7.878H16.1296C16.2603 7.878 16.3536 7.89667 16.4096 7.934C16.4703 7.96667 16.5263 8.02267 16.5776 8.102L18.8806 11.812C18.9273 11.6953 18.9833 11.5787 19.0486 11.462L21.1626 8.137C21.2139 8.04833 21.2699 7.983 21.3306 7.941C21.3913 7.899 21.4683 7.878 21.5616 7.878H23.3606L20.1056 12.715L23.4516 18ZM35.5952 7.878V18H33.9362V11.462C33.9362 11.2007 33.9502 10.9183 33.9782 10.615L30.9192 16.362C30.7745 16.6373 30.5529 16.775 30.2542 16.775H29.9882C29.6895 16.775 29.4679 16.6373 29.3232 16.362L26.2292 10.594C26.2432 10.748 26.2549 10.8997 26.2642 11.049C26.2735 11.1983 26.2782 11.336 26.2782 11.462V18H24.6192V7.878H26.0402C26.1242 7.878 26.1965 7.88033 26.2572 7.885C26.3179 7.88967 26.3715 7.90133 26.4182 7.92C26.4695 7.93867 26.5139 7.969 26.5512 8.011C26.5932 8.053 26.6329 8.109 26.6702 8.179L29.7012 13.8C29.7805 13.9493 29.8529 14.1033 29.9182 14.262C29.9882 14.4207 30.0559 14.584 30.1212 14.752C30.1865 14.5793 30.2542 14.4137 30.3242 14.255C30.3942 14.0917 30.4689 13.9353 30.5482 13.786L33.5372 8.179C33.5745 8.109 33.6142 8.053 33.6562 8.011C33.6982 7.969 33.7425 7.93867 33.7892 7.92C33.8405 7.90133 33.8965 7.88967 33.9572 7.885C34.0179 7.88033 34.0902 7.878 34.1742 7.878H35.5952ZM43.7826 16.446V18H37.8536V7.878H39.7366V16.446H43.7826Z" fill="white"/>
</svg>
