<svg width="48" height="24" viewBox="0 0 48 24" fill="none" xmlns="http://www.w3.org/2000/svg">
<path d="M6.98596 24C3.89399 24 1.97114 20.6418 3.5363 17.9752L11.1813 4.9504C12.6177 2.50318 15.243 1 18.0806 1H44C46.2091 1 48 2.79086 48 5V20C48 22.2091 46.2091 24 44 24H6.98596Z" fill="#F8B200"/>
<path d="M30.7982 8.571C30.7982 8.78567 30.7376 8.98167 30.6162 9.159L25.4222 16.495H30.6792V18H22.9792V17.258C22.9792 17.1647 22.9956 17.076 23.0282 16.992C23.0609 16.9033 23.1029 16.8217 23.1542 16.747L28.3622 9.376H23.3082V7.878H30.7982V8.571ZM34.1928 18H32.3028V7.878H34.1928V18ZM39.749 12.967C40.0944 12.967 40.3954 12.925 40.652 12.841C40.9087 12.7523 41.121 12.6287 41.289 12.47C41.4617 12.3067 41.59 12.1107 41.674 11.882C41.758 11.6487 41.8 11.3897 41.8 11.105C41.8 10.8343 41.758 10.5893 41.674 10.37C41.59 10.1507 41.464 9.964 41.296 9.81C41.128 9.656 40.9157 9.53933 40.659 9.46C40.4024 9.376 40.099 9.334 39.749 9.334H38.342V12.967H39.749ZM39.749 7.878C40.4257 7.878 41.0114 7.95733 41.506 8.116C42.0007 8.27467 42.409 8.49633 42.731 8.781C43.053 9.06567 43.291 9.40633 43.445 9.803C43.6037 10.1997 43.683 10.6337 43.683 11.105C43.683 11.595 43.6014 12.0453 43.438 12.456C43.2747 12.862 43.0297 13.212 42.703 13.506C42.3764 13.8 41.9657 14.0287 41.471 14.192C40.981 14.3553 40.407 14.437 39.749 14.437H38.342V18H36.459V7.878H39.749Z" fill="white"/>
</svg>
